<svg width="15" height="17" viewBox="0 0 15 17" fill="none" xmlns="http://www.w3.org/2000/svg">
<path d="M12.1379 11.138C11.9825 11.138 11.8334 11.1998 11.7234 11.3097C11.6135 11.4196 11.5517 11.5687 11.5517 11.7242V14.069C11.5517 14.2245 11.49 14.3736 11.38 14.4835C11.2701 14.5935 11.121 14.6552 10.9655 14.6552H2.75862C2.60315 14.6552 2.45405 14.5935 2.34411 14.4835C2.23417 14.3736 2.17241 14.2245 2.17241 14.069V11.7242C2.17241 11.5687 2.11065 11.4196 2.00072 11.3097C1.89078 11.1998 1.74168 11.138 1.58621 11.138C1.43074 11.138 1.28163 11.1998 1.1717 11.3097C1.06176 11.4196 1 11.5687 1 11.7242V14.069C1 14.5354 1.18528 14.9828 1.51509 15.3126C1.84489 15.6424 2.29221 15.8277 2.75862 15.8277H10.9655C11.4319 15.8277 11.8792 15.6424 12.2091 15.3126C12.5389 14.9828 12.7241 14.5354 12.7241 14.069V11.7242C12.7241 11.5687 12.6624 11.4196 12.5524 11.3097C12.4425 11.1998 12.2934 11.138 12.1379 11.138ZM6.44586 12.1404C6.50161 12.1938 6.56735 12.2356 6.63931 12.2635C6.70948 12.2945 6.78535 12.3105 6.86207 12.3105C6.93879 12.3105 7.01466 12.2945 7.08483 12.2635C7.15679 12.2356 7.22253 12.1938 7.27828 12.1404L9.6231 9.79558C9.73349 9.6852 9.7955 9.53549 9.7955 9.37938C9.7955 9.22327 9.73349 9.07356 9.6231 8.96317C9.51272 8.85279 9.363 8.79077 9.2069 8.79077C9.05079 8.79077 8.90107 8.85279 8.79069 8.96317L7.44828 10.3114V4.68972C7.44828 4.53425 7.38652 4.38515 7.27658 4.27521C7.16664 4.16528 7.01754 4.10352 6.86207 4.10352C6.7066 4.10352 6.55749 4.16528 6.44756 4.27521C6.33762 4.38515 6.27586 4.53425 6.27586 4.68972V10.3114L4.93345 8.96317C4.87879 8.90851 4.8139 8.86516 4.74249 8.83558C4.67108 8.806 4.59454 8.79077 4.51724 8.79077C4.43994 8.79077 4.3634 8.806 4.29199 8.83558C4.22058 8.86516 4.15569 8.90851 4.10103 8.96317C4.04638 9.01783 4.00302 9.08272 3.97344 9.15413C3.94386 9.22554 3.92864 9.30208 3.92864 9.37938C3.92864 9.45667 3.94386 9.53321 3.97344 9.60463C4.00302 9.67604 4.04638 9.74093 4.10103 9.79558L6.44586 12.1404Z" fill="white"/>
</svg>
