<svg width="22" height="22" viewBox="0 0 22 22" fill="none" xmlns="http://www.w3.org/2000/svg">
<path fill-rule="evenodd" clip-rule="evenodd" d="M5.74164 5.74164C6.06382 5.41945 6.58618 5.41945 6.90836 5.74164L11 9.83327L15.0916 5.74164C15.4138 5.41945 15.9362 5.41945 16.2584 5.74164C16.5805 6.06382 16.5805 6.58618 16.2584 6.90836L12.1667 11L16.2584 15.0916C16.5805 15.4138 16.5805 15.9362 16.2584 16.2584C15.9362 16.5805 15.4138 16.5805 15.0916 16.2584L11 12.1667L6.90836 16.2584C6.58618 16.5805 6.06382 16.5805 5.74164 16.2584C5.41945 15.9362 5.41945 15.4138 5.74164 15.0916L9.83327 11L5.74164 6.90836C5.41945 6.58618 5.41945 6.06382 5.74164 5.74164Z" fill="white"/>
</svg>
