<svg width="17" height="15" viewBox="0 0 17 15" fill="none" xmlns="http://www.w3.org/2000/svg">
<g clip-path="url(#clip0_1202_43516)">
<path d="M17 3.95768V11.041C17 12.9939 15.4112 14.5827 13.4583 14.5827H11.3333C10.9423 14.5827 10.625 14.2653 10.625 13.8743C10.625 13.4833 10.9423 13.166 11.3333 13.166H13.4583C14.6299 13.166 15.5833 12.2126 15.5833 11.041V3.95768C15.5833 2.7861 14.6299 1.83268 13.4583 1.83268H3.54167C2.57621 1.83268 1.73046 2.48364 1.48608 3.41652C1.38692 3.79477 1.00158 4.02214 0.621208 3.92156C0.242958 3.82239 0.0162917 3.43493 0.116167 3.05668C0.524167 1.50189 1.93233 0.416016 3.54167 0.416016H13.4583C15.4112 0.416016 17 2.00481 17 3.95768ZM1.0625 12.4577C0.476 12.4577 0 12.9337 0 13.5202C0 14.1067 0.476 14.5827 1.0625 14.5827C1.649 14.5827 2.125 14.1067 2.125 13.5202C2.125 12.9337 1.649 12.4577 1.0625 12.4577ZM0.708333 8.91602C0.317333 8.91602 0 9.23335 0 9.62435C0 10.0153 0.317333 10.3327 0.708333 10.3327C2.66121 10.3327 4.25 11.9215 4.25 13.8743C4.25 14.2653 4.56733 14.5827 4.95833 14.5827C5.34933 14.5827 5.66667 14.2653 5.66667 13.8743C5.66667 11.1402 3.4425 8.91602 0.708333 8.91602ZM0.741625 5.37435C0.350625 5.37435 0.0332917 5.69168 0.0332917 6.08268C0.0332917 6.47368 0.350625 6.79102 0.741625 6.79102C4.62896 6.79102 7.79167 9.9686 7.79167 13.8743C7.79167 14.2653 8.109 14.5827 8.5 14.5827C8.891 14.5827 9.20833 14.2653 9.20833 13.8743C9.20833 9.18731 5.41025 5.37435 0.741625 5.37435Z" fill="white"/>
</g>
<defs>
<clipPath id="clip0_1202_43516">
<rect width="17" height="15" fill="white"/>
</clipPath>
</defs>
</svg>
