<svg width="24" height="24" viewBox="0 0 24 24" fill="none" xmlns="http://www.w3.org/2000/svg">
<path d="M17 8C16.4477 8 16 7.55228 16 7V3C16 2.44772 15.5523 2 15 2C14.4477 2 14 2.44772 14 3V7C14 8.65685 15.3431 10 17 10H21C21.5523 10 22 9.55228 22 9C22 8.44772 21.5523 8 21 8H17Z" fill="white"/>
<path d="M8 7.00001C8 7.55229 7.55228 8.00001 7 8.00001H3C2.44772 8.00001 2 8.44772 2 9.00001C2 9.55229 2.44772 10 3 10H7C8.65685 10 10 8.65686 10 7.00001V3.00001C10 2.44772 9.55228 2.00001 9 2.00001C8.44772 2.00001 8 2.44772 8 3.00001V7.00001Z" fill="white"/>
<path d="M8 17C8 16.4477 7.55229 16 7 16H3C2.44772 16 2 15.5523 2 15C2 14.4477 2.44772 14 3 14H7C8.65686 14 10 15.3431 10 17V21C10 21.5523 9.55229 22 9 22C8.44772 22 8 21.5523 8 21V17Z" fill="white"/>
<path d="M16 17C16 16.4477 16.4477 16 17 16H21C21.5523 16 22 15.5523 22 15C22 14.4477 21.5523 14 21 14H17C15.3431 14 14 15.3431 14 17V21C14 21.5523 14.4477 22 15 22C15.5523 22 16 21.5523 16 21V17Z" fill="white"/>
</svg>
