<svg width="20" height="20" viewBox="0 0 20 20" fill="none" xmlns="http://www.w3.org/2000/svg">
<path d="M4.98099 16.5341C4.92253 16.5446 4.86671 16.5665 4.81674 16.5986C4.76676 16.6308 4.72361 16.6724 4.68974 16.7212C4.65567 16.77 4.63157 16.825 4.61881 16.8831C4.60605 16.9411 4.60488 17.0012 4.61538 17.0597C4.62588 17.1183 4.64783 17.1742 4.67997 17.2242C4.71212 17.2743 4.75383 17.3175 4.80271 17.3514C5.91755 18.1266 7.19169 18.6406 8.53252 18.8553C8.5913 18.8649 8.6514 18.8627 8.70934 18.849C8.76729 18.8352 8.82195 18.8101 8.87018 18.7752C8.91841 18.7403 8.95925 18.6961 8.99037 18.6454C9.02148 18.5946 9.04225 18.5381 9.05148 18.4793C9.06079 18.4207 9.05844 18.3607 9.04458 18.303C9.03072 18.2453 9.00561 18.1908 8.97069 18.1428C8.93577 18.0947 8.89173 18.0541 8.84108 18.0231C8.79043 17.9921 8.73416 17.9714 8.6755 17.9621C7.46874 17.7689 6.32151 17.306 5.31814 16.6082C5.22 16.5399 5.09876 16.5132 4.98099 16.5341Z" fill="white"/>
<path d="M1.44006 11.0709C1.32233 11.0931 1.21826 11.1612 1.15073 11.2602C1.08321 11.3592 1.05775 11.4809 1.07996 11.5987C1.33677 12.9662 1.90568 14.2558 2.74275 15.3673C2.77839 15.4149 2.82308 15.455 2.87424 15.4853C2.9254 15.5156 2.98205 15.5355 3.04092 15.5439C3.09979 15.5522 3.15973 15.5489 3.21731 15.534C3.27488 15.5192 3.32896 15.4931 3.37645 15.4573C3.42391 15.4216 3.46385 15.3768 3.49398 15.3256C3.52411 15.2743 3.54384 15.2177 3.55204 15.1588C3.56024 15.0999 3.55675 15.04 3.54176 14.9825C3.52677 14.925 3.50059 14.871 3.46471 14.8236C2.71133 13.8233 2.19897 12.6618 1.96784 11.431C1.94558 11.3132 1.87748 11.2092 1.7785 11.1416C1.67953 11.0741 1.55779 11.0487 1.44006 11.0709Z" fill="white"/>
<path d="M2.83278 4.58387C2.71535 4.60554 2.61127 4.67281 2.54329 4.77097C1.72123 5.95303 1.19354 7.31357 1.00406 8.74085C0.996113 8.79974 0.99986 8.85961 1.01508 8.91705C1.03031 8.97449 1.05671 9.02836 1.09279 9.07558C1.12886 9.1228 1.17389 9.16244 1.2253 9.19224C1.27671 9.22203 1.33349 9.2414 1.3924 9.24922C1.51105 9.26476 1.63102 9.2326 1.72599 9.1598C1.82097 9.087 1.88319 8.9795 1.899 8.86088C2.06954 7.5763 2.54479 6.35027 3.28466 5.28641C3.3529 5.18806 3.37933 5.06665 3.35815 4.94884C3.33697 4.83102 3.26991 4.72642 3.17169 4.658C3.12287 4.62393 3.06779 4.59984 3.00963 4.58712C2.95147 4.57439 2.89137 4.57329 2.83278 4.58387Z" fill="white"/>
<path d="M8.53252 1.00586C7.07764 1.23883 5.70257 1.82466 4.52558 2.71102C4.47798 2.74666 4.43789 2.79134 4.40759 2.8425C4.3773 2.89367 4.3574 2.95031 4.34903 3.00918C4.34067 3.06805 4.34401 3.12799 4.35885 3.18557C4.3737 3.24315 4.39977 3.29723 4.43555 3.34471C4.47132 3.39218 4.51611 3.43212 4.56733 3.46225C4.61856 3.49238 4.67523 3.51211 4.73409 3.52031C4.79296 3.5285 4.85286 3.52501 4.91037 3.51002C4.96788 3.49504 5.02187 3.46885 5.06925 3.43297C6.12857 2.63523 7.36608 2.10872 8.6755 1.89904C8.73416 1.8898 8.79043 1.86908 8.84108 1.83808C8.89173 1.80708 8.93577 1.7664 8.97069 1.71837C9.00561 1.67034 9.03072 1.61589 9.04458 1.55815C9.05844 1.5004 9.06079 1.44049 9.05148 1.38184C9.04225 1.32301 9.02148 1.26658 8.99037 1.2158C8.95925 1.16502 8.91841 1.12089 8.87018 1.08595C8.82195 1.051 8.76729 1.02594 8.70934 1.0122C8.6514 0.998454 8.5913 0.9963 8.53252 1.00586Z" fill="white"/>
<path d="M11.3886 1.00586C11.3299 0.996554 11.27 0.998899 11.2123 1.01276C11.1545 1.02662 11.1001 1.05173 11.052 1.08665C11.004 1.12157 10.9633 1.16561 10.9323 1.21627C10.9013 1.26692 10.8806 1.32318 10.8714 1.38184C10.8525 1.50003 10.8814 1.62086 10.9515 1.71783C11.0217 1.81479 11.1274 1.87996 11.2456 1.89904C15.1952 2.53046 18.0962 5.93086 18.0962 9.93058C18.0962 13.9295 15.1978 17.3298 11.2491 17.9621C11.1905 17.9714 11.1342 17.9921 11.0835 18.0231C11.0329 18.0541 10.9889 18.0947 10.9539 18.1428C10.919 18.1908 10.8939 18.2453 10.88 18.303C10.8662 18.3607 10.8638 18.4207 10.8731 18.4793C10.8824 18.5381 10.9031 18.5946 10.9343 18.6454C10.9654 18.6961 11.0062 18.7403 11.0544 18.7752C11.1027 18.8101 11.1573 18.8352 11.2153 18.849C11.2732 18.8627 11.3333 18.8649 11.3921 18.8553C15.7729 18.1538 19 14.3671 19 9.93058C19 5.49315 15.7704 1.70639 11.3886 1.00586Z" fill="white"/>
<path d="M4.98099 16.5341C4.92253 16.5446 4.86671 16.5665 4.81674 16.5986C4.76676 16.6308 4.72361 16.6724 4.68974 16.7212C4.65567 16.77 4.63157 16.825 4.61881 16.8831C4.60605 16.9411 4.60488 17.0012 4.61538 17.0597C4.62588 17.1183 4.64783 17.1742 4.67997 17.2242C4.71212 17.2743 4.75383 17.3175 4.80271 17.3514C5.91755 18.1266 7.19169 18.6406 8.53252 18.8553C8.5913 18.8649 8.6514 18.8627 8.70934 18.849C8.76729 18.8352 8.82195 18.8101 8.87018 18.7752C8.91841 18.7403 8.95925 18.6961 8.99037 18.6454C9.02148 18.5946 9.04225 18.5381 9.05148 18.4793C9.06079 18.4207 9.05844 18.3607 9.04458 18.303C9.03072 18.2453 9.00561 18.1908 8.97069 18.1428C8.93577 18.0947 8.89173 18.0541 8.84108 18.0231C8.79043 17.9921 8.73416 17.9714 8.6755 17.9621C7.46874 17.7689 6.32151 17.306 5.31814 16.6082C5.22 16.5399 5.09876 16.5132 4.98099 16.5341Z" stroke="white" stroke-width="0.6"/>
<path d="M1.44006 11.0709C1.32233 11.0931 1.21826 11.1612 1.15073 11.2602C1.08321 11.3592 1.05775 11.4809 1.07996 11.5987C1.33677 12.9662 1.90568 14.2558 2.74275 15.3673C2.77839 15.4149 2.82308 15.455 2.87424 15.4853C2.9254 15.5156 2.98205 15.5355 3.04092 15.5439C3.09979 15.5522 3.15973 15.5489 3.21731 15.534C3.27488 15.5192 3.32896 15.4931 3.37645 15.4573C3.42391 15.4216 3.46385 15.3768 3.49398 15.3256C3.52411 15.2743 3.54384 15.2177 3.55204 15.1588C3.56024 15.0999 3.55675 15.04 3.54176 14.9825C3.52677 14.925 3.50059 14.871 3.46471 14.8236C2.71133 13.8233 2.19897 12.6618 1.96784 11.431C1.94558 11.3132 1.87748 11.2092 1.7785 11.1416C1.67953 11.0741 1.55779 11.0487 1.44006 11.0709Z" stroke="white" stroke-width="0.6"/>
<path d="M2.83278 4.58387C2.71535 4.60554 2.61127 4.67281 2.54329 4.77097C1.72123 5.95303 1.19354 7.31357 1.00406 8.74085C0.996113 8.79974 0.99986 8.85961 1.01508 8.91705C1.03031 8.97449 1.05671 9.02836 1.09279 9.07558C1.12886 9.1228 1.17389 9.16244 1.2253 9.19224C1.27671 9.22203 1.33349 9.2414 1.3924 9.24922C1.51105 9.26476 1.63102 9.2326 1.72599 9.1598C1.82097 9.087 1.88319 8.9795 1.899 8.86088C2.06954 7.5763 2.54479 6.35027 3.28466 5.28641C3.3529 5.18806 3.37933 5.06665 3.35815 4.94884C3.33697 4.83102 3.26991 4.72642 3.17169 4.658C3.12287 4.62393 3.06779 4.59984 3.00963 4.58712C2.95147 4.57439 2.89137 4.57329 2.83278 4.58387Z" stroke="white" stroke-width="0.6"/>
<path d="M8.53252 1.00586C7.07764 1.23883 5.70257 1.82466 4.52558 2.71102C4.47798 2.74666 4.43789 2.79134 4.40759 2.8425C4.3773 2.89367 4.3574 2.95031 4.34903 3.00918C4.34067 3.06805 4.34401 3.12799 4.35885 3.18557C4.3737 3.24315 4.39977 3.29723 4.43555 3.34471C4.47132 3.39218 4.51611 3.43212 4.56733 3.46225C4.61856 3.49238 4.67523 3.51211 4.73409 3.52031C4.79296 3.5285 4.85286 3.52501 4.91037 3.51002C4.96788 3.49504 5.02187 3.46885 5.06925 3.43297C6.12857 2.63523 7.36608 2.10872 8.6755 1.89904C8.73416 1.8898 8.79043 1.86908 8.84108 1.83808C8.89173 1.80708 8.93577 1.7664 8.97069 1.71837C9.00561 1.67034 9.03072 1.61589 9.04458 1.55815C9.05844 1.5004 9.06079 1.44049 9.05148 1.38184C9.04225 1.32301 9.02148 1.26658 8.99037 1.2158C8.95925 1.16502 8.91841 1.12089 8.87018 1.08595C8.82195 1.051 8.76729 1.02594 8.70934 1.0122C8.6514 0.998454 8.5913 0.9963 8.53252 1.00586Z" stroke="white" stroke-width="0.6"/>
<path d="M11.3886 1.00586C11.3299 0.996554 11.27 0.998899 11.2123 1.01276C11.1545 1.02662 11.1001 1.05173 11.052 1.08665C11.004 1.12157 10.9633 1.16561 10.9323 1.21627C10.9013 1.26692 10.8806 1.32318 10.8714 1.38184C10.8525 1.50003 10.8814 1.62086 10.9515 1.71783C11.0217 1.81479 11.1274 1.87996 11.2456 1.89904C15.1952 2.53046 18.0962 5.93086 18.0962 9.93058C18.0962 13.9295 15.1978 17.3298 11.2491 17.9621C11.1905 17.9714 11.1342 17.9921 11.0835 18.0231C11.0329 18.0541 10.9889 18.0947 10.9539 18.1428C10.919 18.1908 10.8939 18.2453 10.88 18.303C10.8662 18.3607 10.8638 18.4207 10.8731 18.4793C10.8824 18.5381 10.9031 18.5946 10.9343 18.6454C10.9654 18.6961 11.0062 18.7403 11.0544 18.7752C11.1027 18.8101 11.1573 18.8352 11.2153 18.849C11.2732 18.8627 11.3333 18.8649 11.3921 18.8553C15.7729 18.1538 19 14.3671 19 9.93058C19 5.49315 15.7704 1.70639 11.3886 1.00586Z" stroke="white" stroke-width="0.6"/>
<path d="M7.74992 5.41231C7.68713 5.40616 7.62374 5.41322 7.56384 5.43304C7.50394 5.45286 7.44886 5.48501 7.40213 5.52741C7.35541 5.56981 7.31808 5.62152 7.29255 5.67921C7.26702 5.73691 7.25386 5.79931 7.25391 5.8624V13.9958C7.25387 14.0747 7.27454 14.1524 7.31386 14.2209C7.35318 14.2894 7.40977 14.3464 7.47799 14.3862C7.54622 14.426 7.62369 14.4473 7.70268 14.4478C7.78167 14.4484 7.85943 14.4282 7.9282 14.3894L15.1584 10.3227C15.2281 10.2833 15.2862 10.2261 15.3266 10.157C15.367 10.0878 15.3883 10.0092 15.3883 9.92907C15.3883 9.84898 15.367 9.77032 15.3266 9.70116C15.2862 9.632 15.2281 9.57482 15.1584 9.53547L7.9282 5.46879C7.87336 5.43774 7.81264 5.4185 7.74992 5.41231Z" fill="white"/>
</svg>
