<svg width="17" height="17" viewBox="0 0 17 17" fill="none" xmlns="http://www.w3.org/2000/svg">
<path d="M3.09095 6.1819C2.47962 6.1819 1.88202 6.00062 1.37371 5.66098C0.865408 5.32135 0.469233 4.83861 0.235286 4.27381C0.00133927 3.70901 -0.0598719 3.08752 0.0593931 2.48794C0.178658 1.88835 0.473043 1.3376 0.90532 0.90532C1.3376 0.473043 1.88835 0.178658 2.48794 0.0593931C3.08752 -0.0598719 3.70901 0.00133927 4.27381 0.235286C4.83861 0.469233 5.32135 0.865408 5.66098 1.37371C6.00062 1.88202 6.1819 2.47962 6.1819 3.09095C6.1819 3.91072 5.85625 4.69692 5.27659 5.27659C4.69692 5.85625 3.91072 6.1819 3.09095 6.1819ZM3.09095 1.54548C2.78529 1.54548 2.48648 1.63612 2.23233 1.80594C1.97818 1.97576 1.78009 2.21713 1.66312 2.49952C1.54615 2.78192 1.51554 3.09267 1.57517 3.39246C1.63481 3.69225 1.782 3.96763 1.99814 4.18377C2.21427 4.39991 2.48965 4.5471 2.78945 4.60673C3.08924 4.66636 3.39998 4.63576 3.68238 4.51879C3.96478 4.40181 4.20615 4.20372 4.37597 3.94957C4.54579 3.69542 4.63643 3.39662 4.63643 3.09095C4.63643 2.68107 4.4736 2.28797 4.18377 1.99814C3.89394 1.7083 3.50084 1.54548 3.09095 1.54548Z" fill="white"/>
<path d="M13.909 11.591C13.2977 11.591 12.7001 11.4097 12.1918 11.07C11.6835 10.7304 11.2873 10.2477 11.0534 9.68286C10.8194 9.11806 10.7582 8.49657 10.8775 7.89699C10.9968 7.2974 11.2911 6.74665 11.7234 6.31437C12.1557 5.88209 12.7064 5.58771 13.306 5.46844C13.9056 5.34918 14.5271 5.41039 15.0919 5.64433C15.6567 5.87828 16.1394 6.27446 16.4791 6.78276C16.8187 7.29107 17 7.88867 17 8.5C17 9.31977 16.6743 10.106 16.0947 10.6856C15.515 11.2653 14.7288 11.591 13.909 11.591ZM13.909 6.95453C13.6034 6.95453 13.3046 7.04517 13.0504 7.21499C12.7963 7.3848 12.5982 7.62617 12.4812 7.90857C12.3642 8.19097 12.3336 8.50172 12.3933 8.80151C12.4529 9.1013 12.6001 9.37668 12.8162 9.59282C13.0324 9.80896 13.3077 9.95615 13.6075 10.0158C13.9073 10.0754 14.2181 10.0448 14.5005 9.92783C14.7829 9.81086 15.0242 9.61277 15.1941 9.35862C15.3639 9.10447 15.4545 8.80567 15.4545 8.5C15.4545 8.09012 15.2917 7.69702 15.0019 7.40719C14.712 7.11735 14.3189 6.95453 13.909 6.95453Z" fill="white"/>
<path d="M3.09095 17C2.47962 17 1.88202 16.8187 1.37371 16.4791C0.865408 16.1394 0.469233 15.6567 0.235286 15.0919C0.00133927 14.5271 -0.0598719 13.9056 0.0593931 13.306C0.178658 12.7064 0.473043 12.1557 0.90532 11.7234C1.3376 11.2911 1.88835 10.9968 2.48794 10.8775C3.08752 10.7582 3.70901 10.8194 4.27381 11.0534C4.83861 11.2873 5.32135 11.6835 5.66098 12.1918C6.00062 12.7001 6.1819 13.2977 6.1819 13.909C6.1819 14.7288 5.85625 15.515 5.27659 16.0947C4.69692 16.6743 3.91072 17 3.09095 17ZM3.09095 12.3636C2.78529 12.3636 2.48648 12.4542 2.23233 12.624C1.97818 12.7939 1.78009 13.0352 1.66312 13.3176C1.54615 13.6 1.51554 13.9108 1.57517 14.2106C1.63481 14.5103 1.782 14.7857 1.99814 15.0019C2.21427 15.218 2.48965 15.3652 2.78945 15.4248C3.08924 15.4845 3.39998 15.4539 3.68238 15.3369C3.96478 15.2199 4.20615 15.0218 4.37597 14.7677C4.54579 14.5135 4.63643 14.2147 4.63643 13.909C4.63643 13.4992 4.4736 13.1061 4.18377 12.8162C3.89394 12.5264 3.50084 12.3636 3.09095 12.3636Z" fill="white"/>
<path d="M15.4546 3.86401H5.40905V2.31854H15.4546C15.6596 2.31854 15.8561 2.39995 16.001 2.54487C16.146 2.68978 16.2274 2.88633 16.2274 3.09128C16.2274 3.29622 16.146 3.49277 16.001 3.63768C15.8561 3.7826 15.6596 3.86401 15.4546 3.86401Z" fill="white"/>
<path d="M11.5916 9.27306H1.54602C1.34108 9.27306 1.14453 9.19165 0.999612 9.04673C0.854696 8.90182 0.773283 8.70527 0.773283 8.50032C0.773283 8.29538 0.854696 8.09883 0.999612 7.95392C1.14453 7.809 1.34108 7.72759 1.54602 7.72759H11.5916V9.27306Z" fill="white"/>
<path d="M15.4546 14.6821H5.40905V13.1366H15.4546C15.6596 13.1366 15.8561 13.218 16.001 13.363C16.146 13.5079 16.2274 13.7044 16.2274 13.9094C16.2274 14.1143 16.146 14.3109 16.001 14.4558C15.8561 14.6007 15.6596 14.6821 15.4546 14.6821Z" fill="white"/>
</svg>
