<svg width="18" height="18" viewBox="0 0 18 18" fill="none" xmlns="http://www.w3.org/2000/svg">
<path d="M5.57184 4.43133C5.34588 4.43133 5.125 4.49834 4.93712 4.62387C4.74924 4.74941 4.60281 4.92783 4.51634 5.13659C4.42987 5.34535 4.40725 5.57506 4.45133 5.79667C4.49541 6.01829 4.60422 6.22185 4.764 6.38163C4.92377 6.5414 5.12734 6.65021 5.34895 6.6943C5.57057 6.73838 5.80028 6.71575 6.00904 6.62928C6.21779 6.54281 6.39622 6.39638 6.52176 6.2085C6.64729 6.02063 6.71429 5.79975 6.71429 5.57379C6.71429 5.27079 6.59393 4.9802 6.37968 4.76595C6.16542 4.5517 5.87484 4.43133 5.57184 4.43133ZM15.9454 8.01865L9.53997 1.60565C9.46881 1.53506 9.3844 1.47922 9.29161 1.44131C9.19881 1.40341 9.09945 1.3842 8.99921 1.38478H2.14446C1.94246 1.38478 1.74874 1.46502 1.6059 1.60786C1.46307 1.75069 1.38283 1.94442 1.38283 2.14642V9.00116C1.38225 9.1014 1.40146 9.20076 1.43936 9.29356C1.47726 9.38636 1.53311 9.47076 1.6037 9.54193L8.0167 15.9473C8.44512 16.3752 9.02587 16.6155 9.63137 16.6155C10.2369 16.6155 10.8176 16.3752 11.246 15.9473L15.9454 11.2861C16.3732 10.8577 16.6136 10.2769 16.6136 9.6714C16.6136 9.0659 16.3732 8.48515 15.9454 8.05673V8.01865ZM14.8714 10.1665L10.1645 14.8658C10.0218 15.0076 9.82878 15.0873 9.62756 15.0873C9.42635 15.0873 9.23331 15.0076 9.09061 14.8658L2.9061 8.68889V2.90806H8.68694L14.8714 9.09256C14.942 9.16373 14.9979 9.24813 15.0358 9.34092C15.0737 9.43372 15.0929 9.53309 15.0923 9.63332C15.0915 9.83313 15.0121 10.0246 14.8714 10.1665Z" fill="white"/>
</svg>
