<svg width="20" height="15" viewBox="0 0 20 15" fill="none" xmlns="http://www.w3.org/2000/svg">
<path d="M18.5116 0H4.82414C4.00332 0 3.33578 0.603968 3.33578 1.34627V2.26881H3.15586C2.33543 2.26881 1.6675 2.87243 1.6675 3.61508V4.53797H1.48797C0.667542 4.53797 0 5.14194 0 5.88424V13.6537C0 14.396 0.667542 15 1.48797 15H15.1759C15.9971 15 16.6642 14.396 16.6642 13.6537V12.7301H16.8438C17.6642 12.7301 18.3317 12.1265 18.3317 11.3839V10.4613H18.512C19.3325 10.4613 20 9.85736 20 9.11506V1.34627C20.0004 0.603968 19.3328 0 18.5116 0ZM15.1334 13.6153H1.53006V5.92266H15.1334V13.6153ZM16.8017 11.3461H16.6646V5.88424C16.6646 5.14194 15.9971 4.53797 15.1762 4.53797L3.33616 4.53762V4.09539H3.19833V3.65315H16.8021L16.8017 11.3461ZM18.4699 9.07769H18.3325V3.61543C18.3325 2.87278 17.665 2.26916 16.8445 2.26916H4.86622V1.38469H18.4703L18.4699 9.07769Z" fill="white"/>
<path d="M10.193 9.08805L7.95833 7.61568C7.73324 7.46757 7.43557 7.44661 7.18732 7.56049C6.93945 7.67472 6.78309 7.90492 6.78309 8.15677V11.1015C6.78309 11.3537 6.93945 11.5839 7.18732 11.6978C7.29311 11.747 7.40816 11.7708 7.52283 11.7708C7.67649 11.7708 7.82938 11.7271 7.95833 11.6426L10.193 10.1702C10.3837 10.0445 10.4968 9.84258 10.4968 9.62914C10.4968 9.41501 10.3841 9.2138 10.193 9.08805Z" fill="white"/>
</svg>
