<svg width="17" height="18" viewBox="0 0 17 18" fill="none" xmlns="http://www.w3.org/2000/svg">
<g clip-path="url(#clip0_1202_43523)">
<path d="M13.4451 0.683594H11.1177C10.7977 0.683594 10.5359 0.960826 10.5359 1.29967C10.5359 1.6385 10.7977 1.91574 11.1177 1.91574H13.4451C14.4081 1.91574 15.1907 2.74435 15.1907 3.76395V6.22824C15.1907 6.56708 15.4525 6.84431 15.7725 6.84431C16.0925 6.84431 16.3544 6.56708 16.3544 6.22824V3.76395C16.3544 2.06667 15.0481 0.683594 13.4451 0.683594Z" fill="white"/>
<path d="M5.88114 16.0854H3.55376C2.5908 16.0854 1.80822 15.2568 1.80822 14.2372V11.7729C1.80822 11.434 1.54639 11.1568 1.22638 11.1568C0.906362 11.1568 0.644531 11.434 0.644531 11.7729V14.2372C0.644531 15.9344 1.95077 17.3175 3.55376 17.3175H5.88114C6.20115 17.3175 6.46298 17.0403 6.46298 16.7015C6.46298 16.3626 6.20115 16.0854 5.88114 16.0854Z" fill="white"/>
<path d="M1.22638 6.84431C1.54639 6.84431 1.80822 6.56708 1.80822 6.22824V3.76395C1.80822 2.74435 2.5908 1.91574 3.55376 1.91574H5.88114C6.20115 1.91574 6.46298 1.6385 6.46298 1.29967C6.46298 0.960826 6.20115 0.683594 5.88114 0.683594H3.55376C1.95077 0.683594 0.644531 2.06667 0.644531 3.76395V6.22824C0.644531 6.56708 0.906362 6.84431 1.22638 6.84431Z" fill="white"/>
<path d="M15.7725 11.1568C15.4525 11.1568 15.1907 11.434 15.1907 11.7729V14.2372C15.1907 15.2568 14.4081 16.0854 13.4451 16.0854H11.1177C10.7977 16.0854 10.5359 16.3626 10.5359 16.7015C10.5359 17.0403 10.7977 17.3175 11.1177 17.3175H13.4451C15.0481 17.3175 16.3544 15.9344 16.3544 14.2372V11.7729C16.3544 11.434 16.0925 11.1568 15.7725 11.1568Z" fill="white"/>
<path d="M13.4451 0.683594H11.1177C10.7977 0.683594 10.5359 0.960826 10.5359 1.29967C10.5359 1.6385 10.7977 1.91574 11.1177 1.91574H13.4451C14.4081 1.91574 15.1907 2.74435 15.1907 3.76395V6.22824C15.1907 6.56708 15.4525 6.84431 15.7725 6.84431C16.0925 6.84431 16.3544 6.56708 16.3544 6.22824V3.76395C16.3544 2.06667 15.0481 0.683594 13.4451 0.683594Z" stroke="white" stroke-width="0.5"/>
<path d="M5.88114 16.0854H3.55376C2.5908 16.0854 1.80822 15.2568 1.80822 14.2372V11.7729C1.80822 11.434 1.54639 11.1568 1.22638 11.1568C0.906362 11.1568 0.644531 11.434 0.644531 11.7729V14.2372C0.644531 15.9344 1.95077 17.3175 3.55376 17.3175H5.88114C6.20115 17.3175 6.46298 17.0403 6.46298 16.7015C6.46298 16.3626 6.20115 16.0854 5.88114 16.0854Z" stroke="white" stroke-width="0.5"/>
<path d="M1.22638 6.84431C1.54639 6.84431 1.80822 6.56708 1.80822 6.22824V3.76395C1.80822 2.74435 2.5908 1.91574 3.55376 1.91574H5.88114C6.20115 1.91574 6.46298 1.6385 6.46298 1.29967C6.46298 0.960826 6.20115 0.683594 5.88114 0.683594H3.55376C1.95077 0.683594 0.644531 2.06667 0.644531 3.76395V6.22824C0.644531 6.56708 0.906362 6.84431 1.22638 6.84431Z" stroke="white" stroke-width="0.5"/>
<path d="M15.7725 11.1568C15.4525 11.1568 15.1907 11.434 15.1907 11.7729V14.2372C15.1907 15.2568 14.4081 16.0854 13.4451 16.0854H11.1177C10.7977 16.0854 10.5359 16.3626 10.5359 16.7015C10.5359 17.0403 10.7977 17.3175 11.1177 17.3175H13.4451C15.0481 17.3175 16.3544 15.9344 16.3544 14.2372V11.7729C16.3544 11.434 16.0925 11.1568 15.7725 11.1568Z" stroke="white" stroke-width="0.5"/>
</g>
<defs>
<clipPath id="clip0_1202_43523">
<rect width="17" height="18" fill="white"/>
</clipPath>
</defs>
</svg>
