<svg width="21" height="21" viewBox="0 0 21 21" fill="none" xmlns="http://www.w3.org/2000/svg">
<path d="M9.86865 3.46303L9.86866 3.46303L9.87106 3.46062C10.1034 3.22632 10.4134 3.09688 10.75 3.09688C11.4369 3.09688 11.9975 3.65745 11.9975 4.34437V16.6556C11.9975 17.3425 11.4369 17.9031 10.75 17.9031C10.418 17.9031 10.1062 17.7745 9.86866 17.537L5.54725 13.2156L5.31293 12.9812H4.98156H3.61328C2.60808 12.9812 1.78828 12.1615 1.78828 11.1562V9.84375C1.78828 8.83855 2.60808 8.01875 3.61328 8.01875H4.98156H5.31293L5.54725 7.78444L9.86865 3.46303Z" stroke="white" stroke-width="1.6"/>
<path d="M14.6622 7.05428C14.3898 7.29381 14.3636 7.70725 14.5998 7.97959C15.115 8.56693 15.4201 9.50865 15.4201 10.4996C15.4201 11.4905 15.1117 12.4322 14.5998 13.0196C14.3603 13.2919 14.3898 13.7054 14.6622 13.9449C14.7869 14.0532 14.9411 14.109 15.0953 14.109C15.279 14.109 15.4595 14.0335 15.5908 13.8858C16.3192 13.0524 16.7392 11.8187 16.7392 10.4996C16.7392 9.18053 16.3225 7.94678 15.5908 7.11334C15.3512 6.841 14.9378 6.81147 14.6654 7.051L14.6622 7.05428Z" fill="white"/>
<path d="M17.8555 4.79023C17.5996 4.53101 17.1862 4.52773 16.927 4.78367C16.6677 5.03961 16.6645 5.45304 16.9204 5.71226C18.0524 6.8607 18.6988 8.60633 18.6988 10.5029C18.6988 12.3995 18.0491 14.1451 16.9204 15.2935C16.6677 15.5527 16.6677 15.9662 16.927 16.2221C17.0549 16.3468 17.2223 16.4124 17.3863 16.4124C17.5504 16.4124 17.7243 16.3468 17.8523 16.2155C19.2238 14.8243 20.0113 12.744 20.0113 10.5062C20.0113 8.26836 19.2238 6.18804 17.8523 4.79679L17.8555 4.79023Z" fill="white"/>
</svg>
