<svg width="13" height="13" viewBox="0 0 13 13" fill="none" xmlns="http://www.w3.org/2000/svg">
<g clip-path="url(#clip0_1182_35757)">
<path d="M11.0961 1.90389C8.55758 -0.634639 4.44186 -0.634639 1.90387 1.90394C-0.634639 4.44245 -0.634639 8.55814 1.90397 11.0961C4.44186 13.6346 8.55758 13.6346 11.0961 11.0961C13.6346 8.55814 13.6346 4.44245 11.0961 1.90389ZM10.3301 10.33C8.21463 12.4455 4.78491 12.4455 2.67 10.3301C0.554506 8.21511 0.554506 4.7854 2.66995 2.66995C4.78491 0.55448 8.21463 0.55448 10.3301 2.66995C12.4455 4.78542 12.4455 8.21511 10.3301 10.33Z" fill="white"/>
<path d="M9.18105 3.8188C8.96952 3.60727 8.62654 3.60727 8.41501 3.8188L6.49993 5.73389L4.58484 3.8188C4.37331 3.60727 4.03033 3.60727 3.8188 3.8188C3.60727 4.03033 3.60727 4.37331 3.8188 4.58484L5.73389 6.49993L3.81951 8.4143C3.60798 8.62583 3.60798 8.96881 3.81951 9.18034C4.03104 9.39187 4.37402 9.39187 4.58555 9.18034L6.49993 7.26596L8.41486 9.1809C8.62639 9.39243 8.96937 9.39243 9.1809 9.1809C9.39243 8.96937 9.39243 8.62639 9.1809 8.41486L7.26596 6.49993L9.18105 4.58484C9.39258 4.37331 9.39258 4.03036 9.18105 3.8188Z" fill="white"/>
</g>
<defs>
<clipPath id="clip0_1182_35757">
<rect width="13" height="13" fill="white"/>
</clipPath>
</defs>
</svg>
