<svg width="21" height="21" viewBox="0 0 21 21" fill="none" xmlns="http://www.w3.org/2000/svg">
    <path d="M9.86865 3.46303L9.86866 3.46303L9.87106 3.46062C10.1034 3.22632 10.4134 3.09688 10.75 3.09688C11.4369 3.09688 11.9975 3.65745 11.9975 4.34437V16.6556C11.9975 17.3425 11.4369 17.9031 10.75 17.9031C10.418 17.9031 10.1062 17.7745 9.86866 17.537L5.54725 13.2156L5.31293 12.9812H4.98156H3.61328C2.60808 12.9812 1.78828 12.1615 1.78828 11.1562V9.84375C1.78828 8.83855 2.60808 8.01875 3.61328 8.01875H4.98156H5.31293L5.54725 7.78444L9.86865 3.46303Z" stroke="white" stroke-width="1.6"/>
    <path d="M14.5 8.5L18 12M18 8.5L14.5 12" stroke="white" stroke-width="1.6" stroke-linecap="round"/>
</svg>