<svg width="17" height="17" viewBox="0 0 17 17" fill="none" xmlns="http://www.w3.org/2000/svg">
<path d="M12.4897 1.0791C12.1657 1.0791 11.9036 1.33256 11.9036 1.64577V12.5746C11.9036 14.3897 10.376 15.8667 8.4988 15.8667C6.62155 15.8667 5.09401 14.3897 5.09401 12.5746V3.21129C5.09401 2.06523 6.05781 1.13333 7.2431 1.13333C8.42783 1.13333 9.39163 2.06523 9.39163 3.21129V11.8596C9.39163 12.3134 9.00989 12.6825 8.54058 12.6825C8.07127 12.6825 7.68952 12.3134 7.68952 11.8596V6.82711C7.68952 6.5139 7.42739 6.26045 7.10346 6.26045C6.77952 6.26045 6.51739 6.5139 6.51739 6.82711V11.8596C6.51739 12.9382 7.42511 13.8158 8.54058 13.8158C9.65605 13.8158 10.5638 12.9382 10.5638 11.8596V3.21129C10.5638 1.44046 9.07399 0 7.2431 0C5.41165 0 3.92188 1.44046 3.92188 3.21129V12.5746C3.92188 15.015 5.97482 17 8.4988 17C11.0228 17 13.0757 15.015 13.0757 12.5746V1.64577C13.0757 1.33255 12.8136 1.0791 12.4897 1.0791Z" fill="white"/>
</svg>
