<svg width="24" height="24" viewBox="0 0 24 24" fill="none" xmlns="http://www.w3.org/2000/svg">
<path d="M4 5C4 4.44772 4.44772 4 5 4H9C9.55228 4 10 3.55228 10 3C10 2.44772 9.55228 2 9 2H5C3.34315 2 2 3.34315 2 5V9C2 9.55228 2.44772 10 3 10C3.55228 10 4 9.55228 4 9V5Z" fill="white"/>
<path d="M4 19C4 19.5523 4.44772 20 5 20H9C9.55228 20 10 20.4477 10 21C10 21.5523 9.55228 22 9 22H5C3.34315 22 2 20.6569 2 19V15C2 14.4477 2.44772 14 3 14C3.55228 14 4 14.4477 4 15V19Z" fill="white"/>
<path d="M19 4C19.5523 4 20 4.44772 20 5V9C20 9.55228 20.4477 10 21 10C21.5523 10 22 9.55228 22 9V5C22 3.34315 20.6569 2 19 2H15C14.4477 2 14 2.44772 14 3C14 3.55228 14.4477 4 15 4H19Z" fill="white"/>
<path d="M20 19C20 19.5523 19.5523 20 19 20H15C14.4477 20 14 20.4477 14 21C14 21.5523 14.4477 22 15 22H19C20.6569 22 22 20.6569 22 19V15C22 14.4477 21.5523 14 21 14C20.4477 14 20 14.4477 20 15V19Z" fill="white"/>
</svg>
