<svg width="13" height="18" viewBox="0 0 13 18" fill="none" xmlns="http://www.w3.org/2000/svg">
<path d="M0 0.999999C0 0.447714 0.447715 0 1 0H12C12.5523 0 13 0.447715 13 1V11.8298C13 12.1234 12.871 12.4022 12.6471 12.5922L6.94573 17.4314C6.56259 17.7566 5.99762 17.747 5.62582 17.4089L0.327199 12.5902C0.118802 12.4007 0 12.1321 0 11.8504V0.999999Z" fill="white"/>
<path d="M3 4C3 3.44771 3.44772 3 4 3H9C9.55228 3 10 3.44772 10 4V9.37575C10 9.66397 9.87564 9.93817 9.65881 10.1281L7.06129 12.4028C6.67431 12.7417 6.09335 12.7317 5.71823 12.3797L3.31576 10.1255C3.11429 9.9365 3 9.67255 3 9.39628V4Z" fill="#304FFE"/>
<circle cx="6.5" cy="7.5" r="5.5" fill="#304FFE"/>
<path d="M9.68763 4.31589C7.92994 2.56137 5.07005 2.56137 3.31236 4.31589C1.56268 5.99194 1.56239 9.00806 3.31242 10.6841C5.07006 12.4386 7.92993 12.4386 9.68763 10.6841C11.4373 9.00806 11.4376 5.99184 9.68763 4.31589ZM3.52631 4.53367C4.34613 3.71531 5.4231 3.30609 6.5 3.30609C6.69576 3.30609 6.89148 3.32001 7.08571 3.34705C7.04035 3.59144 6.97772 3.83455 6.89661 4.07426C6.731 3.98132 6.64064 3.88357 6.63325 3.87509C6.50202 3.72514 6.27462 3.92182 6.40276 4.07506C6.41148 4.08535 6.54236 4.23508 6.78834 4.36398C6.70363 4.57499 6.60551 4.78259 6.49462 4.98566C6.32926 4.89278 6.23903 4.79518 6.23165 4.7867C6.10065 4.63623 5.87294 4.83384 6.00116 4.98667C6.00933 4.9963 6.12414 5.12846 6.34087 5.25112C6.2298 5.43204 6.10837 5.6084 5.97729 5.77951C5.80799 5.68541 5.71602 5.58551 5.70934 5.57782C5.57832 5.42706 5.35083 5.6257 5.479 5.77794C5.48675 5.78702 5.58993 5.90487 5.78303 6.02105C5.66767 6.15731 5.54662 6.29002 5.41878 6.41766C5.232 6.29315 5.14077 6.16254 5.13419 6.1528C5.02335 5.98689 4.77223 6.15521 4.88098 6.32247C4.88797 6.33314 4.98792 6.48162 5.19231 6.63186C5.03162 6.77751 4.86519 6.91471 4.69306 7.04153C4.54349 6.87729 4.48659 6.73028 4.48257 6.71933C4.45414 6.63993 4.36766 6.59892 4.2886 6.6269C4.08252 6.72699 4.22447 6.9373 4.44117 7.21667C4.27144 7.32932 4.09769 7.43342 3.92019 7.52729C3.83642 7.38607 3.80965 7.27761 3.80735 7.26767C3.78894 7.18542 3.70817 7.13319 3.62622 7.15167C3.42339 7.22666 3.51336 7.39847 3.64706 7.66219C3.46926 7.74478 3.28869 7.818 3.10603 7.88101C3.04792 7.74892 3.03341 7.65334 3.03228 7.64523C3.02137 7.56164 2.94528 7.50296 2.86259 7.51314C2.66052 7.57182 2.7254 7.72016 2.81495 7.97239C2.65633 8.01736 2.49655 8.0543 2.3362 8.08381C2.30958 7.89192 2.2953 7.69706 2.2953 7.49997C2.2953 6.37956 2.73246 5.32613 3.52631 4.53367ZM2.38967 8.38554C2.58183 8.35019 2.77316 8.30489 2.96277 8.24865C3.0587 8.37173 3.22083 8.62201 3.41924 8.66883C3.55978 8.67366 3.62693 8.47747 3.5119 8.39392C3.40992 8.31501 3.32955 8.231 3.26588 8.14879C3.45566 8.08093 3.64349 8.00399 3.82797 7.91613C3.92115 8.02362 4.03931 8.13226 4.19084 8.22882C4.216 8.24491 4.24414 8.25255 4.2719 8.25255C4.41896 8.25795 4.48159 8.04579 4.35325 7.96973C4.25599 7.90773 4.17619 7.84007 4.10951 7.77205C4.30001 7.66918 4.4869 7.55663 4.66849 7.43323C4.79084 7.51007 5.05867 7.77198 5.1834 7.55379C5.26409 7.37617 5.03054 7.32267 4.92983 7.24507C5.11553 7.10513 5.29541 6.95493 5.46781 6.79409C5.58099 6.84463 5.72037 6.89985 5.86553 6.91878C5.9362 6.91878 5.99959 6.86878 6.01429 6.79626C6.04926 6.60624 5.82186 6.60978 5.70456 6.561C5.83156 6.43027 5.95252 6.29517 6.06728 6.15614C6.1919 6.20088 6.33582 6.23541 6.49888 6.24844C6.69763 6.26167 6.72228 5.96202 6.52293 5.9428C6.43035 5.93541 6.34842 5.91792 6.27145 5.89708C6.39749 5.7279 6.51388 5.55354 6.62156 5.37542C6.76444 5.40385 7.14223 5.5776 7.18465 5.31657C7.19364 5.09942 6.90477 5.15975 6.77833 5.10158C6.88793 4.8981 6.98516 4.69019 7.06996 4.47905C7.17817 4.51128 7.30258 4.53812 7.43481 4.54609C7.62532 4.5455 7.639 4.257 7.44668 4.24C7.34725 4.23207 7.25974 4.21273 7.17833 4.18953C7.26717 3.92967 7.33593 3.66591 7.38506 3.40054C8.92435 3.69454 10.3064 5.04437 10.6103 6.61443C10.3427 6.66363 10.0768 6.73277 9.81475 6.82217C9.79151 6.74102 9.77212 6.65381 9.76417 6.55468C9.75748 6.47034 9.68385 6.40635 9.60041 6.41429C9.35799 6.45288 9.49924 6.78703 9.52707 6.92953C9.31481 7.01453 9.10579 7.11203 8.90125 7.22198C8.87815 7.14109 8.85887 7.05422 8.85095 6.95552C8.8442 6.87117 8.77138 6.80734 8.6872 6.81512C8.43118 6.85673 8.59859 7.23408 8.62918 7.37728C8.45002 7.48527 8.27466 7.60207 8.1045 7.72855C8.08346 7.65154 8.0658 7.56951 8.05837 7.47677C8.03788 7.27474 7.74316 7.30102 7.75535 7.50147C7.76833 7.66357 7.80267 7.80667 7.84715 7.93079C7.70724 8.0459 7.57132 8.16726 7.43981 8.29471C7.39025 8.17657 7.39327 7.94846 7.20469 7.98343C6.96122 8.05789 7.16069 8.38968 7.20787 8.52966C7.04627 8.70237 6.89537 8.88258 6.75485 9.06865C6.67641 8.96782 6.62218 8.73034 6.44558 8.8134C6.23119 8.93999 6.4897 9.2049 6.56738 9.32849C6.44381 9.50987 6.33106 9.6965 6.22807 9.88676C6.159 9.81969 6.09026 9.73921 6.02736 9.64088C5.982 9.56993 5.88795 9.5495 5.81721 9.59515C5.59593 9.75876 5.98783 10.0646 6.08373 10.1682C5.99594 10.3521 5.91904 10.5393 5.85119 10.7285C5.69872 10.6481 5.5701 10.317 5.38897 10.4544C5.17374 10.6449 5.64553 10.9448 5.75087 11.0322C5.69512 11.2199 5.65015 11.4092 5.61495 11.5994C4.84905 11.436 4.12013 11.059 3.52631 10.4663C2.94601 9.88698 2.55734 9.16795 2.38967 8.38554ZM9.47369 10.4663C8.50484 11.4334 7.17696 11.8287 5.9143 11.6529C5.94376 11.4942 5.98054 11.336 6.02522 11.179C6.27603 11.2693 6.4292 11.3343 6.48538 11.1307C6.47331 10.9109 6.34943 10.9984 6.11764 10.8863C6.18067 10.7046 6.25381 10.5249 6.33632 10.348C6.55549 10.4642 6.63317 10.4819 6.69909 10.4892C6.87659 10.4901 6.90602 10.2251 6.73197 10.1863C6.72333 10.1843 6.61446 10.1579 6.47231 10.0742C6.56629 9.8973 6.67046 9.72412 6.78321 9.55497C7.0412 9.75853 7.13506 9.79419 7.22992 9.80995C7.39698 9.81241 7.44015 9.56613 7.27995 9.51186C7.2775 9.51099 7.12752 9.45613 6.95882 9.30352C7.08607 9.13157 7.22376 8.96533 7.36988 8.80484C7.52103 9.01057 7.67087 9.11114 7.68164 9.11813C7.7071 9.13482 7.73568 9.14275 7.76389 9.14275C7.90864 9.14824 7.97357 8.93917 7.84769 8.86136C7.83887 8.85548 7.70856 8.76508 7.5839 8.57968C7.71211 8.45181 7.84538 8.33075 7.98226 8.21542C8.09916 8.40974 8.21813 8.51354 8.22725 8.52129C8.37883 8.64921 8.57331 8.41723 8.42351 8.28712C8.4162 8.28079 8.31698 8.18993 8.22306 8.02256C8.39494 7.89144 8.57213 7.77002 8.75389 7.65898C8.87711 7.87655 9.01016 7.99182 9.01983 8.00004C9.04826 8.02414 9.08278 8.03589 9.11722 8.03589C9.25237 8.04128 9.32445 7.85251 9.21609 7.76587C9.20886 7.7596 9.11154 7.67051 9.01847 7.50642C9.22238 7.39552 9.43089 7.29742 9.64282 7.21278C9.7722 7.45931 9.92273 7.59044 9.93304 7.59921C9.96147 7.62331 9.99599 7.63506 10.0304 7.63506C10.1652 7.6406 10.2379 7.45157 10.1293 7.36504C10.1221 7.35876 10.0247 7.26962 9.93159 7.10542C10.1729 7.02411 10.4177 6.96142 10.6638 6.91613C10.8489 8.21608 10.4075 9.54219 9.47369 10.4663Z" fill="white"/>
</svg>
