<svg width="13" height="18" viewBox="0 0 13 18" fill="none" xmlns="http://www.w3.org/2000/svg">
<path d="M0 0.999999C0 0.447714 0.447715 0 1 0H12C12.5523 0 13 0.447715 13 1V11.8298C13 12.1234 12.871 12.4022 12.6471 12.5922L6.94573 17.4314C6.56259 17.7566 5.99762 17.747 5.62582 17.4089L0.327199 12.5902C0.118802 12.4007 0 12.1321 0 11.8504V0.999999Z" fill="white"/>
<path d="M3 4C3 3.44771 3.44772 3 4 3H9C9.55228 3 10 3.44772 10 4V9.37575C10 9.66397 9.87564 9.93817 9.65881 10.1281L7.06129 12.4028C6.67431 12.7417 6.09335 12.7317 5.71823 12.3797L3.31576 10.1255C3.11429 9.9365 3 9.67255 3 9.39628V4Z" fill="#FF3838"/>
<circle cx="6.5" cy="7.5" r="5.5" fill="#FF1111"/>
<path d="M9.61836 4.38626C7.89973 2.67073 5.10339 2.67073 3.38476 4.38626C1.67396 6.02506 1.67368 8.97416 3.38481 10.6129C5.1034 12.3285 7.89971 12.3285 9.61836 10.6129C11.3292 8.97416 11.3294 6.02496 9.61836 4.38626ZM3.59395 4.5992C4.39556 3.79902 5.4486 3.3989 6.50156 3.3989C6.69297 3.3989 6.88435 3.41251 7.07425 3.43895C7.0299 3.67791 6.96867 3.91562 6.88935 4.15C6.72743 4.05912 6.63908 3.96355 6.63185 3.95525C6.50354 3.80864 6.28119 4.00094 6.40648 4.15078C6.41501 4.16084 6.54298 4.30724 6.78349 4.43328C6.70067 4.6396 6.60473 4.84259 6.4963 5.04114C6.33462 4.95033 6.24639 4.8549 6.23917 4.8466C6.11109 4.69948 5.88844 4.8927 6.01381 5.04213C6.02179 5.05155 6.13405 5.18077 6.34597 5.3007C6.23737 5.4776 6.11864 5.65004 5.99046 5.81736C5.82493 5.72534 5.73501 5.62767 5.72848 5.62014C5.60036 5.47273 5.37793 5.66696 5.50326 5.81582C5.51083 5.82469 5.61172 5.93993 5.80052 6.05352C5.68773 6.18676 5.56937 6.31652 5.44437 6.44133C5.26174 6.31958 5.17253 6.19187 5.1661 6.18235C5.05773 6.02012 4.81219 6.18471 4.91852 6.34824C4.92536 6.35868 5.02308 6.50386 5.22293 6.65076C5.06582 6.79317 4.90308 6.92733 4.73477 7.05133C4.58853 6.89073 4.53289 6.747 4.52896 6.73629C4.50117 6.65865 4.41661 6.61855 4.3393 6.64592C4.13781 6.74378 4.2766 6.94941 4.48849 7.22258C4.32253 7.33272 4.15264 7.43451 3.97908 7.52629C3.89717 7.38821 3.871 7.28216 3.86875 7.27244C3.85075 7.19202 3.77178 7.14095 3.69164 7.15902C3.49332 7.23235 3.58129 7.40033 3.71202 7.6582C3.53818 7.73895 3.36162 7.81054 3.18302 7.87215C3.12619 7.743 3.112 7.64955 3.11091 7.64161C3.10024 7.55988 3.02584 7.50251 2.94498 7.51246C2.7474 7.56983 2.81084 7.71487 2.89841 7.96151C2.74331 8.00547 2.58708 8.04159 2.43029 8.07045C2.40426 7.88282 2.3903 7.6923 2.3903 7.49958C2.3903 6.40407 2.81775 5.37405 3.59395 4.5992ZM2.48257 8.36547C2.67047 8.3309 2.85754 8.28661 3.04293 8.23162C3.13673 8.35197 3.29526 8.59669 3.48927 8.64246C3.62668 8.64719 3.69234 8.45536 3.57986 8.37366C3.48015 8.29651 3.40157 8.21436 3.33931 8.13399C3.52488 8.06763 3.70853 7.9924 3.88891 7.90649C3.98002 8.01159 4.09556 8.11782 4.24372 8.21224C4.26832 8.22797 4.29583 8.23544 4.32298 8.23544C4.46676 8.24071 4.528 8.03327 4.40252 7.9589C4.30741 7.89828 4.2294 7.83213 4.1642 7.76561C4.35047 7.66503 4.53319 7.55498 4.71075 7.43433C4.83038 7.50946 5.09226 7.76554 5.21422 7.55221C5.29311 7.37853 5.06476 7.32622 4.96629 7.25034C5.14786 7.11352 5.32374 6.96665 5.49231 6.80938C5.60298 6.85881 5.73925 6.9128 5.88119 6.93131C5.95029 6.9313 6.01228 6.88242 6.02665 6.81151C6.06084 6.62571 5.83849 6.62917 5.7238 6.58147C5.84798 6.45365 5.96625 6.32156 6.07845 6.18561C6.20031 6.22935 6.34103 6.26312 6.50047 6.27587C6.69481 6.2888 6.7189 5.9958 6.52398 5.97702C6.43346 5.96979 6.35335 5.95269 6.2781 5.93231C6.40133 5.76689 6.51513 5.5964 6.62043 5.42224C6.76012 5.45004 7.12952 5.61993 7.171 5.3647C7.17979 5.15238 6.89733 5.21137 6.77371 5.15449C6.88087 4.95553 6.97594 4.75224 7.05886 4.5458C7.16467 4.5773 7.28631 4.60355 7.4156 4.61134C7.60188 4.61077 7.61526 4.32868 7.42721 4.31205C7.32998 4.3043 7.24442 4.28539 7.16482 4.26271C7.25168 4.00862 7.31891 3.75072 7.36695 3.49125C8.87204 3.77872 10.2233 5.09855 10.5205 6.63372C10.2589 6.68183 9.99884 6.74943 9.74266 6.83685C9.71993 6.7575 9.70097 6.67222 9.69319 6.5753C9.68666 6.49283 9.61466 6.43027 9.53307 6.43802C9.29605 6.47576 9.43415 6.80248 9.46137 6.94182C9.25382 7.02493 9.04945 7.12026 8.84945 7.22777C8.82686 7.14867 8.80801 7.06374 8.80027 6.96723C8.79367 6.88476 8.72246 6.82234 8.64015 6.82995C8.38983 6.87064 8.55352 7.2396 8.58343 7.37961C8.40825 7.48521 8.23678 7.59942 8.07041 7.72308C8.04983 7.64778 8.03257 7.56758 8.0253 7.47689C8.00526 7.27936 7.71709 7.30505 7.72902 7.50105C7.74171 7.65955 7.77529 7.79947 7.81877 7.92082C7.68197 8.03338 7.54907 8.15204 7.42049 8.27666C7.37203 8.16114 7.37498 7.93811 7.19059 7.9723C6.95253 8.0451 7.14757 8.36951 7.1937 8.50639C7.03569 8.67526 6.88815 8.85147 6.75075 9.0334C6.67406 8.93481 6.62103 8.70261 6.44835 8.78382C6.23873 8.9076 6.49149 9.16662 6.56744 9.28747C6.44663 9.46482 6.33638 9.6473 6.23567 9.83333C6.16814 9.76775 6.10093 9.68906 6.03943 9.59291C5.99508 9.52354 5.90311 9.50356 5.83394 9.5482C5.61758 9.70817 6.00077 10.0072 6.09454 10.1085C6.00871 10.2883 5.93351 10.4714 5.86717 10.6564C5.71809 10.5778 5.59232 10.254 5.41522 10.3884C5.20478 10.5746 5.66608 10.8679 5.76908 10.9533C5.71457 11.1368 5.6706 11.3219 5.63618 11.5079C4.8873 11.3481 4.17458 10.9796 3.59395 10.4C3.02655 9.83355 2.64651 9.13049 2.48257 8.36547ZM9.40917 10.4C8.46185 11.3456 7.16348 11.7321 5.92888 11.5602C5.95769 11.405 5.99364 11.2504 6.03734 11.0969C6.28257 11.1852 6.43234 11.2487 6.48727 11.0496C6.47546 10.8347 6.35434 10.9203 6.1277 10.8106C6.18933 10.6329 6.26084 10.4573 6.34152 10.2843C6.55582 10.398 6.63177 10.4153 6.69623 10.4224C6.86979 10.4233 6.89856 10.1642 6.72837 10.1262C6.71993 10.1242 6.61347 10.0984 6.47449 10.0166C6.56638 9.84363 6.66824 9.6743 6.77848 9.50892C7.03073 9.70795 7.12251 9.74282 7.21527 9.75823C7.37861 9.76063 7.42082 9.51982 7.26418 9.46676C7.26179 9.46591 7.11514 9.41227 6.95019 9.26305C7.0746 9.09493 7.20924 8.93238 7.35212 8.77545C7.49991 8.97661 7.64642 9.07495 7.65694 9.08178C7.68184 9.0981 7.70978 9.10586 7.73736 9.10586C7.8789 9.11122 7.94239 8.9068 7.8193 8.83072C7.81068 8.82496 7.68326 8.73658 7.56138 8.55529C7.68674 8.43027 7.81704 8.3119 7.95088 8.19913C8.06518 8.38913 8.18151 8.49062 8.19043 8.49821C8.33865 8.62328 8.5288 8.39646 8.38233 8.26924C8.37518 8.26305 8.27817 8.17421 8.18633 8.01056C8.35439 7.88235 8.52765 7.76362 8.70537 7.65506C8.82585 7.86779 8.95594 7.9805 8.9654 7.98854C8.9932 8.0121 9.02695 8.02359 9.06063 8.02359C9.19277 8.02886 9.26324 7.84429 9.1573 7.75957C9.15022 7.75344 9.05507 7.66633 8.96406 7.50588C9.16345 7.39746 9.36733 7.30153 9.57454 7.21877C9.70104 7.45983 9.84824 7.58804 9.85832 7.59661C9.88611 7.62017 9.91987 7.63166 9.95354 7.63166C10.0853 7.63708 10.1564 7.45225 10.0502 7.36765C10.0431 7.36151 9.94794 7.27435 9.8569 7.1138C10.0929 7.03429 10.3322 6.973 10.5728 6.92871C10.7538 8.19977 10.3222 9.49641 9.40917 10.4Z" fill="white"/>
</svg>
